<?xml version="1.0" encoding="UTF-8" standalone="no"?>
<!DOCTYPE svg PUBLIC "-//W3C//DTD SVG 1.1//EN"
 "http://www.w3.org/Graphics/SVG/1.1/DTD/svg11.dtd">
<!-- Generated by graphviz version 14.1.1 (20251213.1925)
 -->
<!-- Title: InheritanceTree Pages: 1 -->
<svg width="370pt" height="213pt"
 viewBox="0.00 0.00 370.00 213.00" xmlns="http://www.w3.org/2000/svg" xmlns:xlink="http://www.w3.org/1999/xlink">
<g id="graph0" class="graph" transform="scale(1 1) rotate(0) translate(4 208.5)">
<title>InheritanceTree</title>
<polygon fill="white" stroke="none" points="-4,4 -4,-208.5 366,-208.5 366,4 -4,4"/>
<text xml:space="preserve" text-anchor="middle" x="181" y="-7.2" font-family="Times New Roman,serif" font-size="14.00">simple_console &#45; Inheritance Hierarchy</text>
<!-- SIMPLE_CONSOLE -->
<g id="node1" class="node">
<title>SIMPLE_CONSOLE</title>
<path fill="none" stroke="black" d="M121.75,-60.5C121.75,-60.5 12,-60.5 12,-60.5 6,-60.5 0,-54.5 0,-48.5 0,-48.5 0,-36.5 0,-36.5 0,-30.5 6,-24.5 12,-24.5 12,-24.5 121.75,-24.5 121.75,-24.5 127.75,-24.5 133.75,-30.5 133.75,-36.5 133.75,-36.5 133.75,-48.5 133.75,-48.5 133.75,-54.5 127.75,-60.5 121.75,-60.5"/>
<text xml:space="preserve" text-anchor="middle" x="66.88" y="-37.45" font-family="Times New Roman,serif" font-size="14.00">SIMPLE_CONSOLE</text>
</g>
<!-- ANY -->
<g id="node2" class="node">
<title>ANY</title>
<path fill="none" stroke="black" d="M316.88,-60.5C316.88,-60.5 286.88,-60.5 286.88,-60.5 280.88,-60.5 274.88,-54.5 274.88,-48.5 274.88,-48.5 274.88,-36.5 274.88,-36.5 274.88,-30.5 280.88,-24.5 286.88,-24.5 286.88,-24.5 316.88,-24.5 316.88,-24.5 322.88,-24.5 328.88,-30.5 328.88,-36.5 328.88,-36.5 328.88,-48.5 328.88,-48.5 328.88,-54.5 322.88,-60.5 316.88,-60.5"/>
<text xml:space="preserve" text-anchor="middle" x="301.88" y="-37.45" font-family="Times New Roman,serif" font-size="14.00">ANY</text>
</g>
<!-- SIMPLE_CONSOLE&#45;&gt;ANY -->
<g id="edge1" class="edge">
<title>SIMPLE_CONSOLE&#45;&gt;ANY</title>
<path fill="none" stroke="black" d="M134.22,-42.5C134.22,-42.5 263.12,-42.5 263.12,-42.5"/>
<polygon fill="none" stroke="black" points="263.12,-46 273.12,-42.5 263.12,-39 263.12,-46"/>
</g>
<!-- LIB_TESTS -->
<g id="node3" class="node">
<title>LIB_TESTS</title>
<path fill="none" stroke="black" d="M97,-132.5C97,-132.5 36.75,-132.5 36.75,-132.5 30.75,-132.5 24.75,-126.5 24.75,-120.5 24.75,-120.5 24.75,-108.5 24.75,-108.5 24.75,-102.5 30.75,-96.5 36.75,-96.5 36.75,-96.5 97,-96.5 97,-96.5 103,-96.5 109,-102.5 109,-108.5 109,-108.5 109,-120.5 109,-120.5 109,-126.5 103,-132.5 97,-132.5"/>
<text xml:space="preserve" text-anchor="middle" x="66.88" y="-109.45" font-family="Times New Roman,serif" font-size="14.00">LIB_TESTS</text>
</g>
<!-- TEST_SET_BASE -->
<g id="node4" class="node">
<title>TEST_SET_BASE</title>
<path fill="none" stroke="black" d="M350,-132.5C350,-132.5 253.75,-132.5 253.75,-132.5 247.75,-132.5 241.75,-126.5 241.75,-120.5 241.75,-120.5 241.75,-108.5 241.75,-108.5 241.75,-102.5 247.75,-96.5 253.75,-96.5 253.75,-96.5 350,-96.5 350,-96.5 356,-96.5 362,-102.5 362,-108.5 362,-108.5 362,-120.5 362,-120.5 362,-126.5 356,-132.5 350,-132.5"/>
<text xml:space="preserve" text-anchor="middle" x="301.88" y="-109.45" font-family="Times New Roman,serif" font-size="14.00">TEST_SET_BASE</text>
</g>
<!-- LIB_TESTS&#45;&gt;TEST_SET_BASE -->
<g id="edge2" class="edge">
<title>LIB_TESTS&#45;&gt;TEST_SET_BASE</title>
<path fill="none" stroke="black" d="M109.43,-114.5C109.43,-114.5 230,-114.5 230,-114.5"/>
<polygon fill="none" stroke="black" points="230,-118 240,-114.5 230,-111 230,-118"/>
</g>
<!-- TEST_APP -->
<g id="node5" class="node">
<title>TEST_APP</title>
<path fill="none" stroke="black" d="M94.75,-204.5C94.75,-204.5 39,-204.5 39,-204.5 33,-204.5 27,-198.5 27,-192.5 27,-192.5 27,-180.5 27,-180.5 27,-174.5 33,-168.5 39,-168.5 39,-168.5 94.75,-168.5 94.75,-168.5 100.75,-168.5 106.75,-174.5 106.75,-180.5 106.75,-180.5 106.75,-192.5 106.75,-192.5 106.75,-198.5 100.75,-204.5 94.75,-204.5"/>
<text xml:space="preserve" text-anchor="middle" x="66.88" y="-181.45" font-family="Times New Roman,serif" font-size="14.00">TEST_APP</text>
</g>
</g>
</svg>
