<?xml version="1.0" encoding="UTF-8" standalone="no"?>
<!DOCTYPE svg PUBLIC "-//W3C//DTD SVG 1.1//EN"
 "http://www.w3.org/Graphics/SVG/1.1/DTD/svg11.dtd">
<!-- Generated by graphviz version 14.1.1 (20251213.1925)
 -->
<!-- Title: ContractCoverage Pages: 1 -->
<svg width="816pt" height="843pt"
 viewBox="48.00 48.00 768.00 795.00" xmlns="http://www.w3.org/2000/svg" xmlns:xlink="http://www.w3.org/1999/xlink">
<g id="graph0" class="graph" transform="scale(0.7318 0.7318) rotate(0) translate(69.59 1082.34)">
<title>ContractCoverage</title>
<polygon fill="white" stroke="none" points="-4,4 -4,-1016.75 979.88,-1016.75 979.88,4 -4,4"/>
<text xml:space="preserve" text-anchor="middle" x="487.94" y="-999.25" font-family="Times New Roman,serif" font-size="10.00">simple_console &#45; Contract Coverage</text>
<g id="clust1" class="cluster">
<title>cluster_SIMPLE_CONSOLE</title>
<polygon fill="white" stroke="black" points="585.25,-585 585.25,-993.5 975.88,-993.5 975.88,-585 585.25,-585"/>
<text xml:space="preserve" text-anchor="middle" x="780.56" y="-976.2" font-family="Times New Roman,serif" font-size="14.00">SIMPLE_CONSOLE</text>
</g>
<g id="clust2" class="cluster">
<title>cluster_LIB_TESTS</title>
<polygon fill="white" stroke="black" points="0,0 0,-508.5 571.12,-508.5 571.12,0 0,0"/>
<text xml:space="preserve" text-anchor="middle" x="285.56" y="-491.2" font-family="Times New Roman,serif" font-size="14.00">LIB_TESTS</text>
</g>
<g id="clust3" class="cluster">
<title>cluster_TEST_APP</title>
<polygon fill="white" stroke="black" points="39.06,-585.5 39.06,-731 178.06,-731 178.06,-585.5 39.06,-585.5"/>
<text xml:space="preserve" text-anchor="middle" x="108.56" y="-713.7" font-family="Times New Roman,serif" font-size="14.00">TEST_APP</text>
</g>
<g id="clust4" class="cluster">
<title>cluster_legend</title>
<polygon fill="lightyellow" stroke="black" points="273.19,-585.13 273.19,-773.38 485.94,-773.38 485.94,-585.13 273.19,-585.13"/>
<text xml:space="preserve" text-anchor="middle" x="379.56" y="-759.88" font-family="Times New Roman,serif" font-size="10.00">Legend</text>
</g>
<!-- SIMPLE_CONSOLE_make -->
<g id="node1" class="node">
<title>SIMPLE_CONSOLE_make</title>
<polygon fill="khaki" stroke="black" points="969.88,-621 915.88,-621 915.88,-585 969.88,-585 969.88,-621"/>
<text xml:space="preserve" text-anchor="middle" x="942.88" y="-599.12" font-family="Times New Roman,serif" font-size="10.00">make</text>
</g>
<!-- SIMPLE_CONSOLE_default_create -->
<g id="node2" class="node">
<title>SIMPLE_CONSOLE_default_create</title>
<polygon fill="lightcoral" stroke="black" points="838.75,-681 765,-681 765,-645 838.75,-645 838.75,-681"/>
<text xml:space="preserve" text-anchor="middle" x="801.88" y="-659.12" font-family="Times New Roman,serif" font-size="10.00">default_create</text>
</g>
<!-- SIMPLE_CONSOLE_set_color -->
<g id="node3" class="node">
<title>SIMPLE_CONSOLE_set_color</title>
<polygon fill="lightgray" stroke="black" points="639.88,-753 585.88,-753 585.88,-717 639.88,-717 639.88,-753"/>
<text xml:space="preserve" text-anchor="middle" x="612.88" y="-731.12" font-family="Times New Roman,serif" font-size="10.00">set_color</text>
</g>
<!-- SIMPLE_CONSOLE_valid_foreground -->
<g id="node4" class="node">
<title>SIMPLE_CONSOLE_valid_foreground</title>
<polygon fill="lightgray" stroke="black" points="900.5,-741 813.25,-741 813.25,-705 900.5,-705 900.5,-741"/>
<text xml:space="preserve" text-anchor="middle" x="856.88" y="-719.12" font-family="Times New Roman,serif" font-size="10.00">valid_foreground</text>
</g>
<!-- SIMPLE_CONSOLE_a_foreground -->
<g id="node5" class="node">
<title>SIMPLE_CONSOLE_a_foreground</title>
<polygon fill="lightgray" stroke="black" points="932.25,-681 861.5,-681 861.5,-645 932.25,-645 932.25,-681"/>
<text xml:space="preserve" text-anchor="middle" x="896.88" y="-659.12" font-family="Times New Roman,serif" font-size="10.00">a_foreground</text>
</g>
<!-- SIMPLE_CONSOLE_valid_background -->
<g id="node6" class="node">
<title>SIMPLE_CONSOLE_valid_background</title>
<polygon fill="lightgray" stroke="black" points="790.38,-783 699.38,-783 699.38,-747 790.38,-747 790.38,-783"/>
<text xml:space="preserve" text-anchor="middle" x="744.88" y="-761.12" font-family="Times New Roman,serif" font-size="10.00">valid_background</text>
</g>
<!-- SIMPLE_CONSOLE_a_background -->
<g id="node7" class="node">
<title>SIMPLE_CONSOLE_a_background</title>
<polygon fill="lightgray" stroke="black" points="918.12,-903 843.62,-903 843.62,-867 918.12,-867 918.12,-903"/>
<text xml:space="preserve" text-anchor="middle" x="880.88" y="-881.13" font-family="Times New Roman,serif" font-size="10.00">a_background</text>
</g>
<!-- SIMPLE_CONSOLE_l_color -->
<g id="node8" class="node">
<title>SIMPLE_CONSOLE_l_color</title>
<polygon fill="khaki" stroke="black" points="735.88,-663 681.88,-663 681.88,-627 735.88,-627 735.88,-663"/>
<text xml:space="preserve" text-anchor="middle" x="708.88" y="-641.12" font-family="Times New Roman,serif" font-size="10.00">l_color</text>
</g>
<!-- SIMPLE_CONSOLE_set_foreground -->
<g id="node9" class="node">
<title>SIMPLE_CONSOLE_set_foreground</title>
<polygon fill="palegreen" stroke="black" points="758.62,-873 681.12,-873 681.12,-837 758.62,-837 758.62,-873"/>
<text xml:space="preserve" text-anchor="middle" x="719.88" y="-851.12" font-family="Times New Roman,serif" font-size="10.00">set_foreground</text>
</g>
<!-- SIMPLE_CONSOLE_set_background -->
<g id="node10" class="node">
<title>SIMPLE_CONSOLE_set_background</title>
<polygon fill="palegreen" stroke="black" points="744.5,-723 663.25,-723 663.25,-687 744.5,-687 744.5,-723"/>
<text xml:space="preserve" text-anchor="middle" x="703.88" y="-701.12" font-family="Times New Roman,serif" font-size="10.00">set_background</text>
</g>
<!-- SIMPLE_CONSOLE_reset_color -->
<g id="node11" class="node">
<title>SIMPLE_CONSOLE_reset_color</title>
<polygon fill="khaki" stroke="black" points="676.38,-813 615.38,-813 615.38,-777 676.38,-777 676.38,-813"/>
<text xml:space="preserve" text-anchor="middle" x="645.88" y="-791.12" font-family="Times New Roman,serif" font-size="10.00">reset_color</text>
</g>
<!-- SIMPLE_CONSOLE_set_cursor -->
<g id="node12" class="node">
<title>SIMPLE_CONSOLE_set_cursor</title>
<polygon fill="lightgray" stroke="black" points="642.5,-969 585.25,-969 585.25,-933 642.5,-933 642.5,-969"/>
<text xml:space="preserve" text-anchor="middle" x="613.88" y="-947.12" font-family="Times New Roman,serif" font-size="10.00">set_cursor</text>
</g>
<!-- SIMPLE_CONSOLE_valid_x -->
<g id="node13" class="node">
<title>SIMPLE_CONSOLE_valid_x</title>
<polygon fill="lightgray" stroke="black" points="657.88,-873 603.88,-873 603.88,-837 657.88,-837 657.88,-873"/>
<text xml:space="preserve" text-anchor="middle" x="630.88" y="-851.12" font-family="Times New Roman,serif" font-size="10.00">valid_x</text>
</g>
<!-- SIMPLE_CONSOLE_valid_y -->
<g id="node14" class="node">
<title>SIMPLE_CONSOLE_valid_y</title>
<polygon fill="lightgray" stroke="black" points="657.88,-663 603.88,-663 603.88,-627 657.88,-627 657.88,-663"/>
<text xml:space="preserve" text-anchor="middle" x="630.88" y="-641.12" font-family="Times New Roman,serif" font-size="10.00">valid_y</text>
</g>
<!-- SIMPLE_CONSOLE_x_in_bounds -->
<g id="node15" class="node">
<title>SIMPLE_CONSOLE_x_in_bounds</title>
<polygon fill="lightgray" stroke="black" points="733.88,-933 663.88,-933 663.88,-897 733.88,-897 733.88,-933"/>
<text xml:space="preserve" text-anchor="middle" x="698.88" y="-911.12" font-family="Times New Roman,serif" font-size="10.00">x_in_bounds</text>
</g>
<!-- SIMPLE_CONSOLE_a_x -->
<g id="node16" class="node">
<title>SIMPLE_CONSOLE_a_x</title>
<polygon fill="lightgray" stroke="black" points="951.88,-801 897.88,-801 897.88,-765 951.88,-765 951.88,-801"/>
<text xml:space="preserve" text-anchor="middle" x="924.88" y="-779.12" font-family="Times New Roman,serif" font-size="10.00">a_x</text>
</g>
<!-- SIMPLE_CONSOLE_width -->
<g id="node17" class="node">
<title>SIMPLE_CONSOLE_width</title>
<polygon fill="lightgray" stroke="black" points="957.88,-963 903.88,-963 903.88,-927 957.88,-927 957.88,-963"/>
<text xml:space="preserve" text-anchor="middle" x="930.88" y="-941.12" font-family="Times New Roman,serif" font-size="10.00">width</text>
</g>
<!-- SIMPLE_CONSOLE_y_in_bounds -->
<g id="node18" class="node">
<title>SIMPLE_CONSOLE_y_in_bounds</title>
<polygon fill="lightgray" stroke="black" points="823.88,-933 753.88,-933 753.88,-897 823.88,-897 823.88,-933"/>
<text xml:space="preserve" text-anchor="middle" x="788.88" y="-911.12" font-family="Times New Roman,serif" font-size="10.00">y_in_bounds</text>
</g>
<!-- SIMPLE_CONSOLE_a_y -->
<g id="node19" class="node">
<title>SIMPLE_CONSOLE_a_y</title>
<polygon fill="lightgray" stroke="black" points="975.88,-741 921.88,-741 921.88,-705 975.88,-705 975.88,-741"/>
<text xml:space="preserve" text-anchor="middle" x="948.88" y="-719.12" font-family="Times New Roman,serif" font-size="10.00">a_y</text>
</g>
<!-- SIMPLE_CONSOLE_height -->
<g id="node20" class="node">
<title>SIMPLE_CONSOLE_height</title>
<polygon fill="khaki" stroke="black" points="813.88,-621 759.88,-621 759.88,-585 813.88,-585 813.88,-621"/>
<text xml:space="preserve" text-anchor="middle" x="786.88" y="-599.12" font-family="Times New Roman,serif" font-size="10.00">height</text>
</g>
<!-- SIMPLE_CONSOLE_cursor_x -->
<g id="node21" class="node">
<title>SIMPLE_CONSOLE_cursor_x</title>
<polygon fill="lightgray" stroke="black" points="891.88,-621 837.88,-621 837.88,-585 891.88,-585 891.88,-621"/>
<text xml:space="preserve" text-anchor="middle" x="864.88" y="-599.12" font-family="Times New Roman,serif" font-size="10.00">cursor_x</text>
</g>
<!-- SIMPLE_CONSOLE_c_sc_get_cursor_x -->
<g id="node22" class="node">
<title>SIMPLE_CONSOLE_c_sc_get_cursor_x</title>
<polygon fill="lightgray" stroke="black" points="876.13,-843 783.63,-843 783.63,-807 876.13,-807 876.13,-843"/>
<text xml:space="preserve" text-anchor="middle" x="829.88" y="-821.12" font-family="Times New Roman,serif" font-size="10.00">c_sc_get_cursor_x</text>
</g>
<!-- LIB_TESTS_test_has_real_console -->
<g id="node23" class="node">
<title>LIB_TESTS_test_has_real_console</title>
<polygon fill="lightcoral" stroke="black" points="226.62,-428 120.62,-428 120.62,-392 226.62,-392 226.62,-428"/>
<text xml:space="preserve" text-anchor="middle" x="173.62" y="-406.12" font-family="Times New Roman,serif" font-size="10.00">test_has_real_console</text>
</g>
<!-- LIB_TESTS_test_default_creation -->
<g id="node24" class="node">
<title>LIB_TESTS_test_default_creation</title>
<polygon fill="lightcoral" stroke="black" points="150.75,-92 48.5,-92 48.5,-56 150.75,-56 150.75,-92"/>
<text xml:space="preserve" text-anchor="middle" x="99.62" y="-70.12" font-family="Times New Roman,serif" font-size="10.00">test_default_creation</text>
</g>
<!-- LIB_TESTS_test_make_creation -->
<g id="node25" class="node">
<title>LIB_TESTS_test_make_creation</title>
<polygon fill="lightcoral" stroke="black" points="127.37,-260 31.87,-260 31.87,-224 127.37,-224 127.37,-260"/>
<text xml:space="preserve" text-anchor="middle" x="79.62" y="-238.12" font-family="Times New Roman,serif" font-size="10.00">test_make_creation</text>
</g>
<!-- LIB_TESTS_test_color_constants -->
<g id="node26" class="node">
<title>LIB_TESTS_test_color_constants</title>
<polygon fill="lightcoral" stroke="black" points="540.62,-484 440.62,-484 440.62,-448 540.62,-448 540.62,-484"/>
<text xml:space="preserve" text-anchor="middle" x="490.62" y="-462.12" font-family="Times New Roman,serif" font-size="10.00">test_color_constants</text>
</g>
<!-- LIB_TESTS_test_color_validation -->
<g id="node27" class="node">
<title>LIB_TESTS_test_color_validation</title>
<polygon fill="lightcoral" stroke="black" points="423.5,-484 319.75,-484 319.75,-448 423.5,-448 423.5,-484"/>
<text xml:space="preserve" text-anchor="middle" x="371.62" y="-462.12" font-family="Times New Roman,serif" font-size="10.00">test_color_validation</text>
</g>
<!-- LIB_TESTS_test_color_names -->
<g id="node28" class="node">
<title>LIB_TESTS_test_color_names</title>
<polygon fill="lightcoral" stroke="black" points="87.25,-204 0,-204 0,-168 87.25,-168 87.25,-204"/>
<text xml:space="preserve" text-anchor="middle" x="43.62" y="-182.12" font-family="Times New Roman,serif" font-size="10.00">test_color_names</text>
</g>
<!-- LIB_TESTS_test_get_dimensions -->
<g id="node29" class="node">
<title>LIB_TESTS_test_get_dimensions</title>
<polygon fill="lightcoral" stroke="black" points="292.62,-484 192.62,-484 192.62,-448 292.62,-448 292.62,-484"/>
<text xml:space="preserve" text-anchor="middle" x="242.62" y="-462.12" font-family="Times New Roman,serif" font-size="10.00">test_get_dimensions</text>
</g>
<!-- LIB_TESTS_test_dimensions_consistency -->
<g id="node30" class="node">
<title>LIB_TESTS_test_dimensions_consistency</title>
<polygon fill="lightcoral" stroke="black" points="255.25,-316 120,-316 120,-280 255.25,-280 255.25,-316"/>
<text xml:space="preserve" text-anchor="middle" x="187.62" y="-294.12" font-family="Times New Roman,serif" font-size="10.00">test_dimensions_consistency</text>
</g>
<!-- LIB_TESTS_test_cursor_position -->
<g id="node31" class="node">
<title>LIB_TESTS_test_cursor_position</title>
<polygon fill="lightcoral" stroke="black" points="171.25,-484 72,-484 72,-448 171.25,-448 171.25,-484"/>
<text xml:space="preserve" text-anchor="middle" x="121.62" y="-462.12" font-family="Times New Roman,serif" font-size="10.00">test_cursor_position</text>
</g>
<!-- LIB_TESTS_test_cursor_origin -->
<g id="node32" class="node">
<title>LIB_TESTS_test_cursor_origin</title>
<polygon fill="lightcoral" stroke="black" points="130.75,-372 40.5,-372 40.5,-336 130.75,-336 130.75,-372"/>
<text xml:space="preserve" text-anchor="middle" x="85.62" y="-350.12" font-family="Times New Roman,serif" font-size="10.00">test_cursor_origin</text>
</g>
<!-- LIB_TESTS_test_cursor_visibility -->
<g id="node33" class="node">
<title>LIB_TESTS_test_cursor_visibility</title>
<polygon fill="lightcoral" stroke="black" points="343.12,-92 240.12,-92 240.12,-56 343.12,-56 343.12,-92"/>
<text xml:space="preserve" text-anchor="middle" x="291.62" y="-70.12" font-family="Times New Roman,serif" font-size="10.00">test_cursor_visibility</text>
</g>
<!-- LIB_TESTS_test_cursor_position_query_no_console -->
<g id="node34" class="node">
<title>LIB_TESTS_test_cursor_position_query_no_console</title>
<polygon fill="lightcoral" stroke="black" points="452.75,-316 272.5,-316 272.5,-280 452.75,-280 452.75,-316"/>
<text xml:space="preserve" text-anchor="middle" x="362.62" y="-294.12" font-family="Times New Roman,serif" font-size="10.00">test_cursor_position_query_no_console</text>
</g>
<!-- LIB_TESTS_test_set_foreground -->
<g id="node35" class="node">
<title>LIB_TESTS_test_set_foreground</title>
<polygon fill="lightcoral" stroke="black" points="513.12,-188 416.12,-188 416.12,-152 513.12,-152 513.12,-188"/>
<text xml:space="preserve" text-anchor="middle" x="464.62" y="-166.12" font-family="Times New Roman,serif" font-size="10.00">test_set_foreground</text>
</g>
<!-- LIB_TESTS_test_set_background -->
<g id="node36" class="node">
<title>LIB_TESTS_test_set_background</title>
<polygon fill="lightcoral" stroke="black" points="493,-132 392.25,-132 392.25,-96 493,-96 493,-132"/>
<text xml:space="preserve" text-anchor="middle" x="442.62" y="-110.12" font-family="Times New Roman,serif" font-size="10.00">test_set_background</text>
</g>
<!-- LIB_TESTS_test_set_color_combined -->
<g id="node37" class="node">
<title>LIB_TESTS_test_set_color_combined</title>
<polygon fill="lightcoral" stroke="black" points="223,-204 104.25,-204 104.25,-168 223,-168 223,-204"/>
<text xml:space="preserve" text-anchor="middle" x="163.62" y="-182.12" font-family="Times New Roman,serif" font-size="10.00">test_set_color_combined</text>
</g>
<!-- LIB_TESTS_test_all_colors_foreground -->
<g id="node38" class="node">
<title>LIB_TESTS_test_all_colors_foreground</title>
<polygon fill="lightcoral" stroke="black" points="510.75,-428 384.5,-428 384.5,-392 510.75,-392 510.75,-428"/>
<text xml:space="preserve" text-anchor="middle" x="447.62" y="-406.12" font-family="Times New Roman,serif" font-size="10.00">test_all_colors_foreground</text>
</g>
<!-- LIB_TESTS_test_all_colors_background -->
<g id="node39" class="node">
<title>LIB_TESTS_test_all_colors_background</title>
<polygon fill="lightcoral" stroke="black" points="474.62,-260 344.62,-260 344.62,-224 474.62,-224 474.62,-260"/>
<text xml:space="preserve" text-anchor="middle" x="409.62" y="-238.12" font-family="Times New Roman,serif" font-size="10.00">test_all_colors_background</text>
</g>
<!-- LIB_TESTS_test_reset_color -->
<g id="node40" class="node">
<title>LIB_TESTS_test_reset_color</title>
<polygon fill="lightcoral" stroke="black" points="88.87,-316 8.37,-316 8.37,-280 88.87,-280 88.87,-316"/>
<text xml:space="preserve" text-anchor="middle" x="48.62" y="-294.12" font-family="Times New Roman,serif" font-size="10.00">test_reset_color</text>
</g>
<!-- LIB_TESTS_test_clear_line -->
<g id="node41" class="node">
<title>LIB_TESTS_test_clear_line</title>
<polygon fill="lightcoral" stroke="black" points="84.62,-148 8.62,-148 8.62,-112 84.62,-112 84.62,-148"/>
<text xml:space="preserve" text-anchor="middle" x="46.62" y="-126.12" font-family="Times New Roman,serif" font-size="10.00">test_clear_line</text>
</g>
<!-- LIB_TESTS_test_set_title -->
<g id="node42" class="node">
<title>LIB_TESTS_test_set_title</title>
<polygon fill="lightcoral" stroke="black" points="548.88,-44 480.38,-44 480.38,-8 548.88,-8 548.88,-44"/>
<text xml:space="preserve" text-anchor="middle" x="514.62" y="-22.12" font-family="Times New Roman,serif" font-size="10.00">test_set_title</text>
</g>
<!-- LIB_TESTS_test_print_colored -->
<g id="node43" class="node">
<title>LIB_TESTS_test_print_colored</title>
<polygon fill="lightcoral" stroke="black" points="571.12,-316 480.12,-316 480.12,-280 571.12,-280 571.12,-316"/>
<text xml:space="preserve" text-anchor="middle" x="525.62" y="-294.12" font-family="Times New Roman,serif" font-size="10.00">test_print_colored</text>
</g>
<!-- LIB_TESTS_test_print_at -->
<g id="node44" class="node">
<title>LIB_TESTS_test_print_at</title>
<polygon fill="lightcoral" stroke="black" points="307.5,-36 239.75,-36 239.75,0 307.5,0 307.5,-36"/>
<text xml:space="preserve" text-anchor="middle" x="273.62" y="-14.12" font-family="Times New Roman,serif" font-size="10.00">test_print_at</text>
</g>
<!-- LIB_TESTS_test_cli_output_helpers -->
<g id="node45" class="node">
<title>LIB_TESTS_test_cli_output_helpers</title>
<polygon fill="lightcoral" stroke="black" points="361,-428 248.25,-428 248.25,-392 361,-392 361,-428"/>
<text xml:space="preserve" text-anchor="middle" x="304.62" y="-406.12" font-family="Times New Roman,serif" font-size="10.00">test_cli_output_helpers</text>
</g>
<!-- LIB_TESTS_test_logging_default_disabled -->
<g id="node46" class="node">
<title>LIB_TESTS_test_logging_default_disabled</title>
<polygon fill="lightcoral" stroke="black" points="301.25,-372 160,-372 160,-336 301.25,-336 301.25,-372"/>
<text xml:space="preserve" text-anchor="middle" x="230.62" y="-350.12" font-family="Times New Roman,serif" font-size="10.00">test_logging_default_disabled</text>
</g>
<!-- LIB_TESTS_test_enable_disable_logging -->
<g id="node47" class="node">
<title>LIB_TESTS_test_enable_disable_logging</title>
<polygon fill="lightcoral" stroke="black" points="374.87,-148 240.37,-148 240.37,-112 374.87,-112 374.87,-148"/>
<text xml:space="preserve" text-anchor="middle" x="307.62" y="-126.12" font-family="Times New Roman,serif" font-size="10.00">test_enable_disable_logging</text>
</g>
<!-- LIB_TESTS_test_set_log_level -->
<g id="node48" class="node">
<title>LIB_TESTS_test_set_log_level</title>
<polygon fill="lightcoral" stroke="black" points="99.12,-428 8.12,-428 8.12,-392 99.12,-392 99.12,-428"/>
<text xml:space="preserve" text-anchor="middle" x="53.62" y="-406.12" font-family="Times New Roman,serif" font-size="10.00">test_set_log_level</text>
</g>
<!-- LIB_TESTS_test_log_level_constants -->
<g id="node49" class="node">
<title>LIB_TESTS_test_log_level_constants</title>
<polygon fill="lightcoral" stroke="black" points="222.62,-148 104.62,-148 104.62,-112 222.62,-112 222.62,-148"/>
<text xml:space="preserve" text-anchor="middle" x="163.62" y="-126.12" font-family="Times New Roman,serif" font-size="10.00">test_log_level_constants</text>
</g>
<!-- LIB_TESTS_test_logging_with_operations -->
<g id="node50" class="node">
<title>LIB_TESTS_test_logging_with_operations</title>
<polygon fill="lightcoral" stroke="black" points="467.5,-372 327.75,-372 327.75,-336 467.5,-336 467.5,-372"/>
<text xml:space="preserve" text-anchor="middle" x="397.62" y="-350.12" font-family="Times New Roman,serif" font-size="10.00">test_logging_with_operations</text>
</g>
<!-- LIB_TESTS_test_error_message_cleared_on_success -->
<g id="node51" class="node">
<title>LIB_TESTS_test_error_message_cleared_on_success</title>
<polygon fill="lightcoral" stroke="black" points="323,-260 144.25,-260 144.25,-224 323,-224 323,-260"/>
<text xml:space="preserve" text-anchor="middle" x="233.62" y="-238.12" font-family="Times New Roman,serif" font-size="10.00">test_error_message_cleared_on_success</text>
</g>
<!-- LIB_TESTS_test_error_handling_no_console -->
<g id="node52" class="node">
<title>LIB_TESTS_test_error_handling_no_console</title>
<polygon fill="lightcoral" stroke="black" points="389,-204 240.25,-204 240.25,-168 389,-168 389,-204"/>
<text xml:space="preserve" text-anchor="middle" x="314.62" y="-182.12" font-family="Times New Roman,serif" font-size="10.00">test_error_handling_no_console</text>
</g>
<!-- LIB_TESTS_test_invariant_holds -->
<g id="node53" class="node">
<title>LIB_TESTS_test_invariant_holds</title>
<polygon fill="lightcoral" stroke="black" points="460.62,-76 360.62,-76 360.62,-40 460.62,-40 460.62,-76"/>
<text xml:space="preserve" text-anchor="middle" x="410.62" y="-54.12" font-family="Times New Roman,serif" font-size="10.00">test_invariant_holds</text>
</g>
<!-- TEST_APP_make -->
<g id="node54" class="node">
<title>TEST_APP_make</title>
<polygon fill="lightcoral" stroke="black" points="178.06,-621.5 124.06,-621.5 124.06,-585.5 178.06,-585.5 178.06,-621.5"/>
<text xml:space="preserve" text-anchor="middle" x="151.06" y="-599.62" font-family="Times New Roman,serif" font-size="10.00">make</text>
</g>
<!-- TEST_APP_passed -->
<g id="node55" class="node">
<title>TEST_APP_passed</title>
<polygon fill="lightgray" stroke="black" points="103.06,-646.5 49.06,-646.5 49.06,-610.5 103.06,-610.5 103.06,-646.5"/>
<text xml:space="preserve" text-anchor="middle" x="76.06" y="-624.62" font-family="Times New Roman,serif" font-size="10.00">passed</text>
</g>
<!-- TEST_APP_failed -->
<g id="node56" class="node">
<title>TEST_APP_failed</title>
<polygon fill="lightgray" stroke="black" points="168.06,-701.5 114.06,-701.5 114.06,-665.5 168.06,-665.5 168.06,-701.5"/>
<text xml:space="preserve" text-anchor="middle" x="141.06" y="-679.62" font-family="Times New Roman,serif" font-size="10.00">failed</text>
</g>
<!-- TEST_APP_run_test -->
<g id="node57" class="node">
<title>TEST_APP_run_test</title>
<polygon fill="lightcoral" stroke="black" points="93.06,-706.5 39.06,-706.5 39.06,-670.5 93.06,-670.5 93.06,-706.5"/>
<text xml:space="preserve" text-anchor="middle" x="66.06" y="-684.62" font-family="Times New Roman,serif" font-size="10.00">run_test</text>
</g>
<!-- legend_full -->
<g id="node58" class="node">
<title>legend_full</title>
<polygon fill="palegreen" stroke="black" points="475.44,-690.13 361.19,-690.13 361.19,-649.13 475.44,-649.13 475.44,-690.13"/>
<text xml:space="preserve" text-anchor="middle" x="418.31" y="-672.83" font-family="Times New Roman,serif" font-size="14.00">Full Contract</text>
<text xml:space="preserve" text-anchor="middle" x="418.31" y="-656.33" font-family="Times New Roman,serif" font-size="14.00">(require + ensure)</text>
</g>
<!-- legend_partial -->
<g id="node59" class="node">
<title>legend_partial</title>
<polygon fill="khaki" stroke="black" points="485.94,-626.12 368.69,-626.12 368.69,-585.12 485.94,-585.12 485.94,-626.12"/>
<text xml:space="preserve" text-anchor="middle" x="427.31" y="-608.83" font-family="Times New Roman,serif" font-size="14.00">Partial Contract</text>
<text xml:space="preserve" text-anchor="middle" x="427.31" y="-592.33" font-family="Times New Roman,serif" font-size="14.00">(require or ensure)</text>
</g>
<!-- legend_none -->
<g id="node60" class="node">
<title>legend_none</title>
<polygon fill="lightcoral" stroke="black" points="467.69,-748.63 384.94,-748.63 384.94,-712.63 467.69,-712.63 467.69,-748.63"/>
<text xml:space="preserve" text-anchor="middle" x="426.31" y="-725.58" font-family="Times New Roman,serif" font-size="14.00">No Contract</text>
</g>
<!-- legend_attr -->
<g id="node61" class="node">
<title>legend_attr</title>
<polygon fill="lightgray" stroke="black" points="361.69,-754.13 296.94,-754.13 296.94,-713.13 361.69,-713.13 361.69,-754.13"/>
<text xml:space="preserve" text-anchor="middle" x="329.31" y="-736.83" font-family="Times New Roman,serif" font-size="14.00">Attribute</text>
<text xml:space="preserve" text-anchor="middle" x="329.31" y="-720.33" font-family="Times New Roman,serif" font-size="14.00">(n/a)</text>
</g>
<!-- legend_stats -->
<g id="node62" class="node">
<title>legend_stats</title>
<polygon fill="white" stroke="black" points="333.44,-692.13 273.19,-692.13 273.19,-585.13 339.44,-585.13 339.44,-686.13 333.44,-692.13"/>
<polyline fill="none" stroke="black" points="333.44,-692.13 333.44,-686.13"/>
<polyline fill="none" stroke="black" points="339.44,-686.13 333.44,-686.13"/>
<text xml:space="preserve" text-anchor="middle" x="306.31" y="-674.83" font-family="Times New Roman,serif" font-size="14.00">Statistics</text>
<text xml:space="preserve" text-anchor="middle" x="306.31" y="-658.33" font-family="Times New Roman,serif" font-size="14.00">Full: 2</text>
<text xml:space="preserve" text-anchor="middle" x="306.31" y="-641.83" font-family="Times New Roman,serif" font-size="14.00">Partial: 4</text>
<text xml:space="preserve" text-anchor="middle" x="306.31" y="-625.33" font-family="Times New Roman,serif" font-size="14.00">None: 34</text>
<text xml:space="preserve" text-anchor="middle" x="306.31" y="-608.83" font-family="Times New Roman,serif" font-size="14.00">Attr: 17</text>
<text xml:space="preserve" text-anchor="middle" x="306.31" y="-592.33" font-family="Times New Roman,serif" font-size="14.00">Total: 57</text>
</g>
</g>
</svg>
