<?xml version="1.0" encoding="UTF-8" standalone="no"?>
<!DOCTYPE svg PUBLIC "-//W3C//DTD SVG 1.1//EN"
 "http://www.w3.org/Graphics/SVG/1.1/DTD/svg11.dtd">
<!-- Generated by graphviz version 14.1.1 (20251213.1925)
 -->
<!-- Title: Dependencies Pages: 1 -->
<svg width="348pt" height="285pt"
 viewBox="0.00 0.00 348.00 285.00" xmlns="http://www.w3.org/2000/svg" xmlns:xlink="http://www.w3.org/1999/xlink">
<g id="graph0" class="graph" transform="scale(1 1) rotate(0) translate(4 280.5)">
<title>Dependencies</title>
<polygon fill="white" stroke="none" points="-4,4 -4,-280.5 344.25,-280.5 344.25,4 -4,4"/>
<text xml:space="preserve" text-anchor="middle" x="170.12" y="-7.2" font-family="Times New Roman,serif" font-size="14.00">simple_console &#45; Dependencies</text>
<!-- simple_console -->
<g id="node1" class="node">
<title>simple_console</title>
<polygon fill="lightblue" stroke="black" points="100.75,-168.5 0,-168.5 0,-132.5 100.75,-132.5 100.75,-168.5"/>
<text xml:space="preserve" text-anchor="middle" x="50.38" y="-145.45" font-family="Times New Roman,serif" font-size="14.00">simple_console</text>
</g>
<!-- simple_logger -->
<g id="node2" class="node">
<title>simple_logger</title>
<polygon fill="lightblue" stroke="black" points="339.5,-276.5 245.5,-276.5 245.5,-240.5 339.5,-240.5 339.5,-276.5"/>
<text xml:space="preserve" text-anchor="middle" x="292.5" y="-253.45" font-family="Times New Roman,serif" font-size="14.00">simple_logger</text>
</g>
<!-- simple_console&#45;&gt;simple_logger -->
<g id="edge1" class="edge">
<title>simple_console&#45;&gt;simple_logger</title>
<path fill="none" stroke="black" stroke-dasharray="5,2" d="M50.25,-168.82C50.25,-199.63 50.25,-258.5 50.25,-258.5 50.25,-258.5 233.7,-258.5 233.7,-258.5"/>
<polygon fill="black" stroke="black" points="233.7,-262 243.7,-258.5 233.7,-255 233.7,-262"/>
</g>
<!-- simple_testing -->
<g id="node3" class="node">
<title>simple_testing</title>
<polygon fill="lightblue" stroke="black" points="340.25,-204.5 244.75,-204.5 244.75,-168.5 340.25,-168.5 340.25,-204.5"/>
<text xml:space="preserve" text-anchor="middle" x="292.5" y="-181.45" font-family="Times New Roman,serif" font-size="14.00">simple_testing</text>
</g>
<!-- simple_console&#45;&gt;simple_testing -->
<g id="edge2" class="edge">
<title>simple_console&#45;&gt;simple_testing</title>
<path fill="none" stroke="black" stroke-dasharray="5,2" d="M101.02,-156.5C161.69,-156.5 255.25,-156.5 255.25,-156.5 255.25,-156.5 255.25,-157.65 255.25,-157.65"/>
<polygon fill="black" stroke="black" points="251.75,-156.5 255.25,-166.5 258.75,-156.5 251.75,-156.5"/>
</g>
<!-- base -->
<g id="node4" class="node">
<title>base</title>
<polygon fill="lightgray" stroke="black" points="319.5,-132.5 265.5,-132.5 265.5,-96.5 319.5,-96.5 319.5,-132.5"/>
<text xml:space="preserve" text-anchor="middle" x="292.5" y="-109.45" font-family="Times New Roman,serif" font-size="14.00">base</text>
</g>
<!-- simple_console&#45;&gt;base -->
<g id="edge3" class="edge">
<title>simple_console&#45;&gt;base</title>
<path fill="none" stroke="black" stroke-dasharray="5,2" d="M101.08,-144.5C172.01,-144.5 292.25,-144.5 292.25,-144.5 292.25,-144.5 292.25,-143.35 292.25,-143.35"/>
<polygon fill="black" stroke="black" points="295.75,-144.5 292.25,-134.5 288.75,-144.5 295.75,-144.5"/>
</g>
<!-- testing -->
<g id="node5" class="node">
<title>testing</title>
<polygon fill="lightgray" stroke="black" points="319.5,-60.5 265.5,-60.5 265.5,-24.5 319.5,-24.5 319.5,-60.5"/>
<text xml:space="preserve" text-anchor="middle" x="292.5" y="-37.45" font-family="Times New Roman,serif" font-size="14.00">testing</text>
</g>
<!-- simple_console&#45;&gt;testing -->
<g id="edge4" class="edge">
<title>simple_console&#45;&gt;testing</title>
<path fill="none" stroke="black" stroke-dasharray="5,2" d="M50.25,-132.18C50.25,-101.37 50.25,-42.5 50.25,-42.5 50.25,-42.5 253.67,-42.5 253.67,-42.5"/>
<polygon fill="black" stroke="black" points="253.67,-46 263.67,-42.5 253.67,-39 253.67,-46"/>
</g>
</g>
</svg>
